HIERARCHY
ROOT Hips
{
  OFFSET 2.088 40.310 -211.907
  CHANNELS 6 Xposition Yposition Zposition Zrotation Xrotation Yrotation
  JOINT LeftUpLeg
  {
    OFFSET 7.182 -4.400 5.192
    CHANNELS 6 Xposition Yposition Zposition Zrotation Xrotation Yrotation
    JOINT LeftLeg
    {
      OFFSET 0.000 -45.749 0.000
      CHANNELS 6 Xposition Yposition Zposition Zrotation Xrotation Yrotation
      JOINT LeftFoot
      {
        OFFSET -0.000 -38.638 -0.000
        CHANNELS 6 Xposition Yposition Zposition Zrotation Xrotation Yrotation
        End Site
        {
          OFFSET 0.000 -8.970 5.179
        }
      }
    }
  }
  JOINT RightUpLeg
  {
    OFFSET -7.156 -4.743 5.216
    CHANNELS 6 Xposition Yposition Zposition Zrotation Xrotation Yrotation
    JOINT RightLeg
    {
      OFFSET 0.000 -46.397 0.000
      CHANNELS 6 Xposition Yposition Zposition Zrotation Xrotation Yrotation
      JOINT RightFoot
      {
        OFFSET -0.000 -38.072 -0.000
        CHANNELS 6 Xposition Yposition Zposition Zrotation Xrotation Yrotation
        End Site
        {
          OFFSET 0.000 -8.816 5.090
        }
      }
    }
  }
  JOINT Spine
  {
    OFFSET 0.000 3.908 -3.908
    CHANNELS 6 Xposition Yposition Zposition Zrotation Xrotation Yrotation
    JOINT LeftShoulder
    {
      OFFSET -0.000 34.546 0.000
      CHANNELS 6 Xposition Yposition Zposition Zrotation Xrotation Yrotation
      JOINT LeftArm
      {
        OFFSET 18.743 0.000 -0.000
        CHANNELS 6 Xposition Yposition Zposition Zrotation Xrotation Yrotation
        JOINT LeftForeArm
        {
          OFFSET 24.206 0.000 0.000
          CHANNELS 6 Xposition Yposition Zposition Zrotation Xrotation Yrotation
          JOINT LeftHand
          {
            OFFSET 23.289 0.000 -0.000
            CHANNELS 6 Xposition Yposition Zposition Zrotation Xrotation Yrotation
            JOINT LeftHandThumb1
            {
            OFFSET 4.970 -0.620 3.390
            CHANNELS 6 Xposition Yposition Zposition Zrotation Xrotation Yrotation
              JOINT LeftHandThumb2
              {
              OFFSET 2.150 -0.000 0.000
              CHANNELS 6 Xposition Yposition Zposition Zrotation Xrotation Yrotation
                JOINT LeftHandThumb3
                {
                OFFSET 2.200 -0.000 0.000
                CHANNELS 6 Xposition Yposition Zposition Zrotation Xrotation Yrotation
                  JOINT LeftHandThumb4
                  {
                  OFFSET 1.700 -0.000 0.000
                  CHANNELS 6 Xposition Yposition Zposition Zrotation Xrotation Yrotation
                  }
                }
              }
            }
            JOINT LeftHandIndex1
            {
            OFFSET 8.730 0.680 2.070
            CHANNELS 6 Xposition Yposition Zposition Zrotation Xrotation Yrotation
              JOINT LeftHandIndex2
              {
              OFFSET 2.670 -0.000 0.000
              CHANNELS 6 Xposition Yposition Zposition Zrotation Xrotation Yrotation
                JOINT LeftHandIndex3
                {
                OFFSET 2.130 -0.000 0.000
                CHANNELS 6 Xposition Yposition Zposition Zrotation Xrotation Yrotation
                  JOINT LeftHandIndex4
                  {
                  OFFSET 1.800 -0.000 0.000
                  CHANNELS 6 Xposition Yposition Zposition Zrotation Xrotation Yrotation
                  }
                }
              }
            }
            JOINT LeftHandMiddle1
            {
            OFFSET 9.220 0.670 0.550
            CHANNELS 6 Xposition Yposition Zposition Zrotation Xrotation Yrotation
              JOINT LeftHandMiddle2
              {
              OFFSET 2.660 -0.000 0.000
              CHANNELS 6 Xposition Yposition Zposition Zrotation Xrotation Yrotation
                JOINT LeftHandMiddle3
                {
                OFFSET 2.280 -0.000 0.000
                CHANNELS 6 Xposition Yposition Zposition Zrotation Xrotation Yrotation
                  JOINT LeftHandMiddle4
                  {
                  OFFSET 1.500 -0.000 0.000
                  CHANNELS 6 Xposition Yposition Zposition Zrotation Xrotation Yrotation
                  }
                }
              }
            }
            JOINT LeftHandRing1
            {
            OFFSET 9.250 0.670 -1.130
            CHANNELS 6 Xposition Yposition Zposition Zrotation Xrotation Yrotation
              JOINT LeftHandRing2
              {
              OFFSET 2.470 -0.000 0.000
              CHANNELS 6 Xposition Yposition Zposition Zrotation Xrotation Yrotation
                JOINT LeftHandRing3
                {
                OFFSET 2.210 -0.000 0.000
                CHANNELS 6 Xposition Yposition Zposition Zrotation Xrotation Yrotation
                  JOINT LeftHandRing4
                  {
                  OFFSET 1.800 -0.000 0.000
                  CHANNELS 6 Xposition Yposition Zposition Zrotation Xrotation Yrotation
                  }
                }
              }
            }
            JOINT LeftHandPinky1
            {
            OFFSET 9.350 0.660 -2.720
            CHANNELS 6 Xposition Yposition Zposition Zrotation Xrotation Yrotation
              JOINT LeftHandPinky2
              {
              OFFSET 1.630 -0.000 0.000
              CHANNELS 6 Xposition Yposition Zposition Zrotation Xrotation Yrotation
                JOINT LeftHandPinky3
                {
                OFFSET 1.710 -0.000 0.000
                CHANNELS 6 Xposition Yposition Zposition Zrotation Xrotation Yrotation
                  JOINT LeftHandPinky4
                  {
                  OFFSET 1.800 -0.000 0.000
                  CHANNELS 6 Xposition Yposition Zposition Zrotation Xrotation Yrotation
                  }
                }
              }
            }
          }
        }
      }
    }
    JOINT RightShoulder
    {
      OFFSET -0.000 34.546 0.000
      CHANNELS 6 Xposition Yposition Zposition Zrotation Xrotation Yrotation
      JOINT RightArm
      {
        OFFSET -19.110 0.000 -0.000
        CHANNELS 6 Xposition Yposition Zposition Zrotation Xrotation Yrotation
        JOINT RightForeArm
        {
          OFFSET -24.424 0.000 0.000
          CHANNELS 6 Xposition Yposition Zposition Zrotation Xrotation Yrotation
          JOINT RightHand
          {
            OFFSET -24.869 0.000 -0.000
            CHANNELS 6 Xposition Yposition Zposition Zrotation Xrotation Yrotation
            JOINT RightHandThumb1
            {
            OFFSET -4.970 -0.620 3.390
            CHANNELS 6 Xposition Yposition Zposition Zrotation Xrotation Yrotation
              JOINT RightHandThumb2
              {
              OFFSET -2.150 0.000 0.000
              CHANNELS 6 Xposition Yposition Zposition Zrotation Xrotation Yrotation
                JOINT RightHandThumb3
                {
                OFFSET -2.200 0.000 0.000
                CHANNELS 6 Xposition Yposition Zposition Zrotation Xrotation Yrotation
                  JOINT RightHandThumb4
                  {
                  OFFSET -1.700 0.000 0.000
                  CHANNELS 6 Xposition Yposition Zposition Zrotation Xrotation Yrotation
                  }
                }
              }
            }
            JOINT RightHandIndex1
            {
            OFFSET -8.730 0.680 2.070
            CHANNELS 6 Xposition Yposition Zposition Zrotation Xrotation Yrotation
              JOINT RightHandIndex2
              {
              OFFSET -2.670 0.000 0.000
              CHANNELS 6 Xposition Yposition Zposition Zrotation Xrotation Yrotation
                JOINT RightHandIndex3
                {
                OFFSET -2.130 0.000 0.000
                CHANNELS 6 Xposition Yposition Zposition Zrotation Xrotation Yrotation
                  JOINT RightHandIndex4
                  {
                  OFFSET -1.800 0.000 0.000
                  CHANNELS 6 Xposition Yposition Zposition Zrotation Xrotation Yrotation
                  }
                }
              }
            }
            JOINT RightHandMiddle1
            {
            OFFSET -9.220 0.670 0.550
            CHANNELS 6 Xposition Yposition Zposition Zrotation Xrotation Yrotation
              JOINT RightHandMiddle2
              {
              OFFSET -2.660 0.000 0.000
              CHANNELS 6 Xposition Yposition Zposition Zrotation Xrotation Yrotation
                JOINT RightHandMiddle3
                {
                OFFSET -2.280 0.000 0.000
                CHANNELS 6 Xposition Yposition Zposition Zrotation Xrotation Yrotation
                  JOINT RightHandMiddle4
                  {
                  OFFSET -1.500 0.000 0.000
                  CHANNELS 6 Xposition Yposition Zposition Zrotation Xrotation Yrotation
                  }
                }
              }
            }
            JOINT RightHandRing1
            {
            OFFSET -9.250 0.670 -1.130
            CHANNELS 6 Xposition Yposition Zposition Zrotation Xrotation Yrotation
              JOINT RightHandRing2
              {
              OFFSET -2.470 0.000 0.000
              CHANNELS 6 Xposition Yposition Zposition Zrotation Xrotation Yrotation
                JOINT RightHandRing3
                {
                OFFSET -2.210 0.000 0.000
                CHANNELS 6 Xposition Yposition Zposition Zrotation Xrotation Yrotation
                  JOINT RightHandRing4
                  {
                  OFFSET -1.800 0.000 0.000
                  CHANNELS 6 Xposition Yposition Zposition Zrotation Xrotation Yrotation
                  }
                }
              }
            }
            JOINT RightHandPinky1
            {
            OFFSET -9.350 0.660 -2.720
            CHANNELS 6 Xposition Yposition Zposition Zrotation Xrotation Yrotation
              JOINT RightHandPinky2
              {
              OFFSET -1.630 0.000 0.000
              CHANNELS 6 Xposition Yposition Zposition Zrotation Xrotation Yrotation
                JOINT RightHandPinky3
                {
                OFFSET -1.710 0.000 0.000
                CHANNELS 6 Xposition Yposition Zposition Zrotation Xrotation Yrotation
                  JOINT RightHandPinky4
                  {
                  OFFSET -1.800 0.000 0.000
                  CHANNELS 6 Xposition Yposition Zposition Zrotation Xrotation Yrotation
                  }
                }
              }
            }
          }
        }
      }
    }
    JOINT Neck
    {
      OFFSET -0.000 34.546 0.000
      CHANNELS 6 Xposition Yposition Zposition Zrotation Xrotation Yrotation
      JOINT Head
      {
        OFFSET -0.000 11.900 -0.000
        CHANNELS 6 Xposition Yposition Zposition Zrotation Xrotation Yrotation
        End Site
        {
          OFFSET -0.000 0.048 -0.000
        }
      }
    }
  }
}
MOTION
Frames:	6
Frame Time:	0.0333333
5.50769 49.6624 -241.483 6.12076 56.0501 -6.73754 7.07277 -4.95563 5.88247 7.9925 -52.4691 6.55661 -1.72295e-06 -51.009 -2.38419e-05 -6.05968 5.93769 0.629179 -2.98023e-06 -41.1896 -4.76837e-05 9.66686 -17.7213 8.36409 -7.35139 -4.69908 5.62921 -4.01439 -47.7289 -2.89362 -1.49012e-06 -51.8989 2.38419e-05 6.00886 -1.63078 0.171635 -4.47035e-06 -40.2995 -2.38419e-05 -9.91449 -15.7308 -8.28392 2.23517e-06 4.56039 -4.56039 1.47904 -44.6739 1.03455 -6.70552e-06 34.5461 2.38419e-05 -26.0286 1.96368e-05 4.41336 19.2931 -2.98023e-06 0 -31.5729 14.5002 15.1158 24.1129 1.78814e-05 2.38419e-05 0.846655 -0.0785796 -5.30213 21.51 -1.49012e-05 0 2.81263 0.0211519 5.54654 0.0062 0.0497 0.0339 0 0 0 0 0.0215 0 0 0 0 0 0.022 0 0 0 0 0 0.017 0 0 0 0 -0.0068 0.0873 0.0207 0 0 0 0 0.0267 0 0 0 0 0 0.0213 0 0 0 0 0 0.018 0 0 0 0 -0.0067 0.0922 0.0055 0 0 0 0 0.0266 0 0 0 0 0 0.0228 0 0 0 0 0 0.015 0 0 0 0 -0.0067 0.0925 -0.0113 0 0 0 0 0.0247 0 0 0 0 0 0.0221 0 0 0 0 0 0.018 0 0 0 0 -0.0066 0.0935 -0.0272 0 0 0 0 0.0163 0 0 0 0 0 0.0171 0 0 0 0 0 0.018 0 0 0 0 -6.70552e-06 34.5461 2.38419e-05 25.3751 1.70755e-06 -4.99422 -17.054 -1.49012e-05 -4.76837e-05 24.8735 17.9672 -14.2742 -24.2476 8.9407e-06 -2.38419e-05 0.0393797 -0.00216517 -3.15367 -24.2755 8.9407e-06 4.76837e-05 6.65317 0.252709 1.99902 -0.0062 0.0497 0.0339 0 0 0 0 0.0215 0 0 0 0 0 0.022 0 0 0 0 0 0.017 0 0 0 0 0.0068 0.0873 0.0207 0 0 0 0 0.0267 0 0 0 0 0 0.0213 0 0 0 0 0 0.018 0 0 0 0 0.0067 0.0922 0.0055 0 0 0 0 0.0266 0 0 0 0 0 0.0228 0 0 0 0 0 0.015 0 0 0 0 0.0067 0.0925 -0.0113 0 0 0 0 0.0247 0 0 0 0 0 0.0221 0 0 0 0 0 0.018 0 0 0 0 0.0066 0.0935 -0.0272 0 0 0 0 0.0163 0 0 0 0 0 0.0171 0 0 0 0 0 0.018 0 0 0 0 -6.70552e-06 34.5461 2.38419e-05 -26.6128 36.5541 16.6157 -8.9407e-06 13.3138 -4.76837e-05 9.39151e-06 -1.02453e-05 -2.56132e-06 
5.50769 49.6624 -241.483 6.12076 56.0501 -6.73754 7.07277 -4.95563 5.88247 7.9925 -52.4691 6.55661 -1.72295e-06 -51.009 -2.38419e-05 -6.05968 5.93769 0.629179 -2.98023e-06 -41.1896 -4.76837e-05 9.66686 -17.7213 8.36409 -7.35139 -4.69908 5.62921 -4.01439 -47.7289 -2.89362 -1.49012e-06 -51.8989 2.38419e-05 6.00886 -1.63078 0.171635 -4.47035e-06 -40.2995 -2.38419e-05 -9.91449 -15.7308 -8.28392 2.23517e-06 4.56039 -4.56039 1.47904 -44.6739 1.03455 -6.70552e-06 34.5461 2.38419e-05 -26.0286 1.96368e-05 4.41336 19.2931 -2.98023e-06 0 -31.5729 14.5002 15.1158 24.1129 1.78814e-05 2.38419e-05 0.846655 -0.0785796 -5.30213 21.51 -1.49012e-05 0 2.81263 0.0211519 5.54654 0.0062 0.0497 0.0339 0 0 0 0 0.0215 0 0 0 0 0 0.022 0 0 0 0 0 0.017 0 0 0 0 -0.0068 0.0873 0.0207 0 0 0 0 0.0267 0 0 0 0 0 0.0213 0 0 0 0 0 0.018 0 0 0 0 -0.0067 0.0922 0.0055 0 0 0 0 0.0266 0 0 0 0 0 0.0228 0 0 0 0 0 0.015 0 0 0 0 -0.0067 0.0925 -0.0113 0 0 0 0 0.0247 0 0 0 0 0 0.0221 0 0 0 0 0 0.018 0 0 0 0 -0.0066 0.0935 -0.0272 0 0 0 0 0.0163 0 0 0 0 0 0.0171 0 0 0 0 0 0.018 0 0 0 0 -6.70552e-06 34.5461 2.38419e-05 25.3751 1.70755e-06 -4.99422 -17.054 -1.49012e-05 -4.76837e-05 24.8735 17.9672 -14.2742 -24.2476 8.9407e-06 -2.38419e-05 0.0393797 -0.00216517 -3.15367 -24.2755 8.9407e-06 4.76837e-05 6.65317 0.252709 1.99902 -0.0062 0.0497 0.0339 0 0 0 0 0.0215 0 0 0 0 0 0.022 0 0 0 0 0 0.017 0 0 0 0 0.0068 0.0873 0.0207 0 0 0 0 0.0267 0 0 0 0 0 0.0213 0 0 0 0 0 0.018 0 0 0 0 0.0067 0.0922 0.0055 0 0 0 0 0.0266 0 0 0 0 0 0.0228 0 0 0 0 0 0.015 0 0 0 0 0.0067 0.0925 -0.0113 0 0 0 0 0.0247 0 0 0 0 0 0.0221 0 0 0 0 0 0.018 0 0 0 0 0.0066 0.0935 -0.0272 0 0 0 0 0.0163 0 0 0 0 0 0.0171 0 0 0 0 0 0.018 0 0 0 0 -6.70552e-06 34.5461 2.38419e-05 -26.6128 36.5541 16.6157 -8.9407e-06 13.3138 -4.76837e-05 9.39151e-06 -1.02453e-05 -2.56132e-06 
5.08561 49.68 -241.224 9.21715 59.713 -9.78504 7.02555 -4.97069 5.81915 8.61207 -56.521 9.18679 3.35276e-06 -51.1909 0 -6.09205 6.22239 0.662774 2.23517e-06 -41.2753 -7.15256e-05 9.26423 -17.817 8.02269 -7.33519 -4.31821 5.72631 -4.8682 -51.6384 -2.00723 0 -52.0639 2.38419e-05 6.15953 -1.79391 0.193565 -2.98023e-06 -40.417 0 -10.0335 -15.659 -8.37283 1.49012e-06 4.526 -4.52602 0.235252 -43.0421 0.0951668 0 34.5461 -7.15256e-05 -25.0764 1.36604e-05 6.84932 18.7582 5.21541e-06 2.38419e-05 -30.222 24.5606 23.2443 23.6095 5.96046e-06 4.76837e-05 1.09197 0.0083499 0.437953 21.5703 -1.19209e-05 -2.38419e-05 -2.77869 -0.131292 3.66757 0.0062 0.0497 0.0339 0 0 0 0 0.0215 0 0 0 0 0 0.022 0 0 0 0 0 0.017 0 0 0 0 -0.0068 0.0873 0.0207 0 0 0 0 0.0267 0 0 0 0 0 0.0213 0 0 0 0 0 0.018 0 0 0 0 -0.0067 0.0922 0.0055 0 0 0 0 0.0266 0 0 0 0 0 0.0228 0 0 0 0 0 0.015 0 0 0 0 -0.0067 0.0925 -0.0113 0 0 0 0 0.0247 0 0 0 0 0 0.0221 0 0 0 0 0 0.018 0 0 0 0 -0.0066 0.0935 -0.0272 0 0 0 0 0.0163 0 0 0 0 0 0.0171 0 0 0 0 0 0.018 0 0 0 0 0 34.5461 -7.15256e-05 23.9005 2.56132e-06 -7.67344 -16.7538 -2.98023e-06 7.15256e-05 24.7471 28.7799 -21.1523 -23.7331 -1.19209e-05 0 -0.251451 0.0330649 -7.4927 -23.8085 -5.96046e-06 -7.15256e-05 6.14268 0.266 5.12318 -0.0062 0.0497 0.0339 0 0 0 0 0.0215 0 0 0 0 0 0.022 0 0 0 0 0 0.017 0 0 0 0 0.0068 0.0873 0.0207 0 0 0 0 0.0267 0 0 0 0 0 0.0213 0 0 0 0 0 0.018 0 0 0 0 0.0067 0.0922 0.0055 0 0 0 0 0.0266 0 0 0 0 0 0.0228 0 0 0 0 0 0.015 0 0 0 0 0.0067 0.0925 -0.0113 0 0 0 0 0.0247 0 0 0 0 0 0.0221 0 0 0 0 0 0.018 0 0 0 0 0.0066 0.0935 -0.0272 0 0 0 0 0.0163 0 0 0 0 0 0.0171 0 0 0 0 0 0.018 0 0 0 0 0 34.5461 -7.15256e-05 -24.9315 19.9171 8.99846 -1.49012e-06 12.1643 9.53674e-05 1.10991e-05 -1.19528e-05 8.53774e-07 
5.08561 49.68 -241.224 9.21715 59.713 -9.78504 7.02555 -4.97069 5.81915 8.61207 -56.521 9.18679 3.35276e-06 -51.1909 0 -6.09205 6.22239 0.662774 2.23517e-06 -41.2753 -7.15256e-05 9.26423 -17.817 8.02269 -7.33519 -4.31821 5.72631 -4.8682 -51.6384 -2.00723 0 -52.0639 2.38419e-05 6.15953 -1.79391 0.193565 -2.98023e-06 -40.417 0 -10.0335 -15.659 -8.37283 1.49012e-06 4.526 -4.52602 0.235252 -43.0421 0.0951668 0 34.5461 -7.15256e-05 -25.0764 1.36604e-05 6.84932 18.7582 5.21541e-06 2.38419e-05 -30.222 24.5606 23.2443 23.6095 5.96046e-06 4.76837e-05 1.09197 0.0083499 0.437953 21.5703 -1.19209e-05 -2.38419e-05 -2.77869 -0.131292 3.66757 0.0062 0.0497 0.0339 0 0 0 0 0.0215 0 0 0 0 0 0.022 0 0 0 0 0 0.017 0 0 0 0 -0.0068 0.0873 0.0207 0 0 0 0 0.0267 0 0 0 0 0 0.0213 0 0 0 0 0 0.018 0 0 0 0 -0.0067 0.0922 0.0055 0 0 0 0 0.0266 0 0 0 0 0 0.0228 0 0 0 0 0 0.015 0 0 0 0 -0.0067 0.0925 -0.0113 0 0 0 0 0.0247 0 0 0 0 0 0.0221 0 0 0 0 0 0.018 0 0 0 0 -0.0066 0.0935 -0.0272 0 0 0 0 0.0163 0 0 0 0 0 0.0171 0 0 0 0 0 0.018 0 0 0 0 0 34.5461 -7.15256e-05 23.9005 2.56132e-06 -7.67344 -16.7538 -2.98023e-06 7.15256e-05 24.7471 28.7799 -21.1523 -23.7331 -1.19209e-05 0 -0.251451 0.0330649 -7.4927 -23.8085 -5.96046e-06 -7.15256e-05 6.14268 0.266 5.12318 -0.0062 0.0497 0.0339 0 0 0 0 0.0215 0 0 0 0 0 0.022 0 0 0 0 0 0.017 0 0 0 0 0.0068 0.0873 0.0207 0 0 0 0 0.0267 0 0 0 0 0 0.0213 0 0 0 0 0 0.018 0 0 0 0 0.0067 0.0922 0.0055 0 0 0 0 0.0266 0 0 0 0 0 0.0228 0 0 0 0 0 0.015 0 0 0 0 0.0067 0.0925 -0.0113 0 0 0 0 0.0247 0 0 0 0 0 0.0221 0 0 0 0 0 0.018 0 0 0 0 0.0066 0.0935 -0.0272 0 0 0 0 0.0163 0 0 0 0 0 0.0171 0 0 0 0 0 0.018 0 0 0 0 0 34.5461 -7.15256e-05 -24.9315 19.9171 8.99846 -1.49012e-06 12.1643 9.53674e-05 1.10991e-05 -1.19528e-05 8.53774e-07 
4.97673 49.0807 -241.344 9.28117 63.7697 -10.2018 7.00106 -4.81796 5.51461 11.6102 -61.4469 12.5703 1.49012e-06 -50.993 2.38419e-05 -6.04122 7.4933 0.79072 0 -41.363 -4.76837e-05 8.94062 -17.8649 7.74528 -7.21784 -4.21757 5.61637 -4.61241 -56.6255 -1.60767 -2.23517e-06 -51.6929 0 6.62494 -0.630844 0.0732674 2.98023e-06 -40.7187 2.38419e-05 -10.3228 -15.6478 -8.61244 2.98023e-06 4.3437 -4.34371 -0.478139 -42.3203 -0.377336 0 34.5461 -2.38419e-05 -23.2025 1.19528e-05 8.61281 17.6653 -1.93715e-05 4.76837e-05 -32.3201 31.7618 29.3958 23.6719 -3.57628e-05 -1.19209e-05 0.282484 -0.00451646 -0.917412 21.1818 2.38419e-05 2.38419e-05 -3.01493 -0.015715 -1.28311 0.0062 0.0497 0.0339 0 0 0 0 0.0215 0 0 0 0 0 0.022 0 0 0 0 0 0.017 0 0 0 0 -0.0068 0.0873 0.0207 0 0 0 0 0.0267 0 0 0 0 0 0.0213 0 0 0 0 0 0.018 0 0 0 0 -0.0067 0.0922 0.0055 0 0 0 0 0.0266 0 0 0 0 0 0.0228 0 0 0 0 0 0.015 0 0 0 0 -0.0067 0.0925 -0.0113 0 0 0 0 0.0247 0 0 0 0 0 0.0221 0 0 0 0 0 0.018 0 0 0 0 -0.0066 0.0935 -0.0272 0 0 0 0 0.0163 0 0 0 0 0 0.0171 0 0 0 0 0 0.018 0 0 0 0 0 34.5461 -2.38419e-05 22.7309 -5.12264e-06 -9.03865 -16.8395 -1.19209e-05 2.38419e-05 29.0153 35.0028 -28.3429 -23.8686 1.19209e-05 2.38419e-05 -1.01577 0.120878 -6.78568 -22.1528 1.19209e-05 -2.38419e-05 5.95628 0.210523 5.55817 -0.0062 0.0497 0.0339 0 0 0 0 0.0215 0 0 0 0 0 0.022 0 0 0 0 0 0.017 0 0 0 0 0.0068 0.0873 0.0207 0 0 0 0 0.0267 0 0 0 0 0 0.0213 0 0 0 0 0 0.018 0 0 0 0 0.0067 0.0922 0.0055 0 0 0 0 0.0266 0 0 0 0 0 0.0228 0 0 0 0 0 0.015 0 0 0 0 0.0067 0.0925 -0.0113 0 0 0 0 0.0247 0 0 0 0 0 0.0221 0 0 0 0 0 0.018 0 0 0 0 0.0066 0.0935 -0.0272 0 0 0 0 0.0163 0 0 0 0 0 0.0171 0 0 0 0 0 0.018 0 0 0 0 0 34.5461 -2.38419e-05 -16.2177 22.956 6.47212 -4.47035e-06 10.9659 2.38419e-05 8.53774e-06 -8.53773e-06 -1.28066e-06 
4.99309 48.3578 -241.515 10.557 67.1199 -12.206 7.03516 -4.71401 5.34221 15.5423 -65.5665 15.886 -5.58794e-07 -50.5354 2.38419e-05 -6.13703 8.85681 0.948437 7.45058e-07 -41.4187 2.38419e-05 8.88405 -17.9071 7.69663 -7.19484 -4.33841 5.51653 -4.01067 -61.4972 -1.86139 1.49012e-06 -51.1218 2.38419e-05 7.01671 1.51372 -0.186289 -4.47035e-06 -40.9419 -4.76837e-05 -10.3911 -15.8183 -8.69539 5.96046e-06 4.25656 -4.25651 -0.821201 -41.6269 -0.607095 -5.96046e-06 34.5461 4.76837e-05 -22.5213 5.12264e-06 10.9695 17.1554 -1.19209e-05 -2.38419e-05 -34.5217 35.776 32.8545 23.926 1.19209e-05 0 -0.91036 0.0408846 -2.57106 22.3832 1.19209e-05 0 -2.05032 0.0253515 -3.46607 0.0062 0.0497 0.0339 0 0 0 0 0.0215 0 0 0 0 0 0.022 0 0 0 0 0 0.017 0 0 0 0 -0.0068 0.0873 0.0207 0 0 0 0 0.0267 0 0 0 0 0 0.0213 0 0 0 0 0 0.018 0 0 0 0 -0.0067 0.0922 0.0055 0 0 0 0 0.0266 0 0 0 0 0 0.0228 0 0 0 0 0 0.015 0 0 0 0 -0.0067 0.0925 -0.0113 0 0 0 0 0.0247 0 0 0 0 0 0.0221 0 0 0 0 0 0.018 0 0 0 0 -0.0066 0.0935 -0.0272 0 0 0 0 0.0163 0 0 0 0 0 0.0171 0 0 0 0 0 0.018 0 0 0 0 -5.96046e-06 34.5461 4.76837e-05 21.5462 -8.53774e-06 -10.9181 -17.2352 2.98023e-06 -4.76837e-05 31.3338 37.7606 -30.2565 -24.1606 1.19209e-05 2.38419e-05 -0.0449602 0.00601654 -7.61929 -23.0974 -3.57628e-05 -3.57628e-05 5.28533 0.218112 7.553 -0.0062 0.0497 0.0339 0 0 0 0 0.0215 0 0 0 0 0 0.022 0 0 0 0 0 0.017 0 0 0 0 0.0068 0.0873 0.0207 0 0 0 0 0.0267 0 0 0 0 0 0.0213 0 0 0 0 0 0.018 0 0 0 0 0.0067 0.0922 0.0055 0 0 0 0 0.0266 0 0 0 0 0 0.0228 0 0 0 0 0 0.015 0 0 0 0 0.0067 0.0925 -0.0113 0 0 0 0 0.0247 0 0 0 0 0 0.0221 0 0 0 0 0 0.018 0 0 0 0 0.0066 0.0935 -0.0272 0 0 0 0 0.0163 0 0 0 0 0 0.0171 0 0 0 0 0 0.018 0 0 0 0 -5.96046e-06 34.5461 4.76837e-05 -9.81001 23.5919 3.95867 2.98023e-06 10.5887 2.38419e-05 1.10991e-05 -8.53774e-06 6.4033e-07 
